<svg version="1.1" xmlns="http://www.w3.org/2000/svg" viewBox="0 0 2048 2048">

<path transform="translate(0,0)" fill="rgb(98,20,168)" d="M 1375.43 286.362 C 1380.26 285.881 1385.11 285.695 1389.95 285.804 C 1436.26 286.574 1470.72 305.921 1503.37 338.386 C 1540 374.816 1560.29 431.082 1531.87 478.467 C 1518.82 500.225 1493.06 510.494 1493.3 542.092 C 1493.47 563.554 1508.45 582.495 1528.99 588.197 C 1540.82 591.421 1554.14 590.299 1566.27 590.417 C 1627.16 591.008 1683.71 581.302 1730.98 629.741 C 1760.02 659.487 1772.91 690.92 1773.17 732.971 L 1773.03 1149.03 L 1773.13 1269.08 C 1773.14 1293.96 1774.7 1324.87 1770.45 1348.88 C 1761.5 1394.89 1727.86 1433.19 1684.49 1450.03 C 1653.57 1462.02 1620.94 1459.24 1588.59 1459.2 L 1479.02 1459.09 L 1067.85 1459.22 L 1067.68 1438.86 L 1067.71 1282.96 C 1067.72 1262.5 1069.07 1214.9 1065.25 1197.06 C 1061.6 1180.38 1053.38 1165.04 1041.52 1152.76 C 1021.37 1131.92 992.853 1122.13 964.405 1133.6 C 955.771 1137.76 948.554 1145.53 940.757 1150.86 C 888.599 1186.51 816.589 1172.8 774.423 1128.44 C 747.424 1099.88 732.828 1061.8 733.823 1022.51 C 735.022 984.477 751.385 948.505 779.264 922.609 C 819.221 884.984 881.25 869.391 931.921 894.159 C 953.004 904.464 959.68 920.013 986.709 920.336 C 1007.11 920.579 1023.89 912.864 1038.35 898.571 C 1052.14 884.832 1061.56 867.313 1065.41 848.225 C 1069.27 829.839 1067.52 778.392 1067.5 756.919 L 1067.7 590.306 C 1126.29 589.219 1185.41 591.844 1244.01 589.966 C 1257.12 589.546 1269.37 582.801 1277.42 572.638 C 1283.33 565.289 1286.8 556.28 1287.35 546.866 C 1289.07 516.48 1263.62 508.593 1248.66 488.836 C 1238.77 475.577 1232.71 459.865 1231.12 443.405 C 1222.77 363.718 1300.24 293.697 1375.43 286.362 z"/>
<path transform="translate(0,0)" fill="rgb(98,20,168)" d="M 407.369 590.518 C 467.564 589.667 529.313 590.319 589.65 590.287 L 983.158 590.338 L 983.431 830.028 C 954.291 813.008 911.587 802.043 877.968 801.489 C 708.938 798.7 597.389 981.603 678.274 1131.32 C 708.073 1187.14 759.184 1228.54 819.978 1246.09 C 875.612 1262.31 933.547 1249.82 983.368 1222.42 L 983.48 1459.16 L 852.767 1459.06 C 832.656 1459.02 810.1 1457.96 790.18 1460.26 C 771.416 1462.44 754.083 1486.38 754.066 1504.85 C 754.041 1532.8 774.619 1540.8 790.633 1557.94 C 805.69 1574.06 813.27 1601.73 811.736 1623.4 C 808.574 1666 788.177 1695.06 757.389 1722.33 C 686.402 1783.99 599.263 1775.18 534.906 1707.71 C 495.308 1666.2 478.792 1602.89 518.648 1555.08 C 523.538 1549.21 531.502 1544.11 537.044 1538.16 C 545.759 1528.7 550.324 1516.15 549.722 1503.31 C 548.942 1483.47 535.923 1467.38 517.233 1461.4 C 507.091 1458.15 489.975 1459.07 478.771 1459.08 L 423.465 1459.11 C 408.604 1459.12 393.386 1459.76 378.73 1457.14 C 317.098 1446.09 267.719 1392.24 266.464 1328.87 C 265.701 1290.35 266.444 1251.78 265.981 1213.24 C 265.831 1200.84 265.309 1188.2 267.619 1176 C 275.626 1133.71 326.111 1110.87 362.711 1134.4 C 377.617 1143.93 388.251 1155.51 404.062 1163.14 C 500.186 1209.04 610.455 1117.45 604.14 1016.44 C 601.771 967.174 574.074 925.656 533.778 898.098 C 487.713 866.595 419.461 865.53 377.535 905.178 C 351.792 929.522 314.089 931.704 287.627 907.365 C 274.803 895.569 266.556 879.457 266.08 861.814 C 266.079 835.997 266.373 809.689 266.12 783.831 C 265.858 726.213 260.488 678.375 304.402 632.991 C 334.344 602.046 365.269 591.343 407.369 590.518 z"/>
</svg>